<?xml version="1.0" encoding="UTF-8"?>
<svg version="1.1" viewBox="0 0 2000 2000" width="500" height="500" xmlns="http://www.w3.org/2000/svg">
<path transform="translate(0)" d="m0 0h2e3v2e3h-2e3z" fill="#FEFFFE"/>
<path transform="translate(797,570)" d="m0 0h59l34 3 29 4 33 7 20 6 22 8 20 9 14 8 12 11 3 5 3 23 2 31v72l-5 5-9 5-4 1h-15l-7-3-5-7-10-30-11-25-8-16-10-16-9-11-15-15-15-10-15-7-21-7-19-4-17-2-15-1h-38l-27 3-18 4-20 6-21 9-17 10-14 10-11 9-12 11-11 12-12 16-10 15-12 22-8 19-8 24-7 29-3 24-3 27-1 16v19l3 37 4 30 9 36 10 27 12 25 13 21 13 17 13 15 17 17 14 11 14 10 21 12 21 9 19 6 21 5 26 3h47l18-2 23-5 17-6 17-8 12-8 10-9h2l2-4 10-10 13-18 11-19 11-24 10-25 5-6 6-3 5-1h10l12 3 8 7 2 5v14l-4 31-7 37-7 25-6 11-7 8-14 10-16 8-20 8-29 9-22 5-35 6-36 3-18 1h-43l-41-4-34-7-27-8-28-11-19-10-19-11-16-11-13-10-14-12-12-11-11-11-9-11-10-12-11-16-8-13-12-23-10-24-8-25-6-27-3-24-2-33v-13l2-33 4-29 8-34 9-25 10-23 12-22 14-21 9-12 11-13 11-12 19-19 11-9 15-12 24-16 18-10 16-8 25-10 18-6 31-7 30-4z" fill="#0D0076"/>
<path transform="translate(1105,974)" d="m0 0h129v348h64v38h-194v-38l63-1 1-308h-64v-38z" fill="#0D0076"/>
<path transform="translate(932,840)" d="m0 0h90l43 1 1 7v60l-1 8h-163l-1-1v-74z" fill="#0D0076"/>
<path transform="translate(1339,840)" d="m0 0h61l60 1v75h-162l-2-2v-73z" fill="#0D0076"/>
<path transform="translate(1156,840)" d="m0 0h64l12 3 10 6 8 9 4 8 2 8v8l-4 13-6 9-7 6-8 4-10 2h-84l-15-4-9-7-7-9-3-7-1-13 3-13 6-9 9-8 8-4 4-1z" fill="#0D0076"/>
<path transform="translate(1214,843)" d="m0 0 12 2 12 6 8 9 4 8 1 5v11l-3 10-6 8-7 6-9 4-11 1-11-2-11-8-6-8-4-10v-13l4-11 7-8 9-6z" fill="#FEFFFE"/>
<path transform="translate(395,1395)" d="m0 0 5 1 1 23 8-5 3-1h11l6 4 5 7 2 6v12l-3 9-6 7-8 3h-7l-7-3-3-2-3 4h-5v-64z" fill="#0D0076"/>
<path transform="translate(1656,1413)" d="m0 0h14l8 5 4 7 2 7v9l-3 10-5 6-6 3-5 1h-7l-8-3-7-8-2-6v-14l3-8 5-6z" fill="#0D0076"/>
<path transform="translate(743,1413)" d="m0 0h13l6 3 6 7 3 9v10l-3 9-4 5-7 4-5 1h-7l-7-2-5-5-3-4-2-6v-13l3-9 5-6z" fill="#0D0076"/>
<path transform="translate(460,1413)" d="m0 0h13l6 3 6 7 2 5 1 12-2 9-4 6-8 5-5 1h-7l-8-3-7-8-2-6v-14l4-10 6-5z" fill="#0D0076"/>
<path transform="translate(1579,1413)" d="m0 0h14l6 4 5 6 2 5 1 6v8l-3 9-7 7-5 2-10 1-9-3-5-5-3-6-1-4v-13l4-10 6-5z" fill="#0D0076"/>
<path transform="translate(556,1413)" d="m0 0h13l6 3 6 7 3 10v8l-3 10-7 7-4 2-11 1-9-3-7-8-2-6v-14l4-10 6-5z" fill="#0D0076"/>
<path transform="translate(1e3 1413)" d="m0 0h14l6 4 5 6 3 10-1 13-5 8-6 5-9 2-9-1-6-4-4-5-3-8v-12l3-9 5-6z" fill="#0D0076"/>
<path transform="translate(1376,1413)" d="m0 0h13l7 4 4 7 1 5v9l-1 1h-31l2 9 5 5h11l7-4 3-2h3l-1 6-7 6-8 2h-7l-7-3-7-8-2-6v-15l5-10 5-4z" fill="#0D0076"/>
<path transform="translate(279,1413)" d="m0 0h12l5 3 3 5 1 10v19l1 3 5 3v4h-9l-4-5-6 5-4 1h-7l-7-3-4-6v-12l5-5 18-5h4l-1-8-3-2h-7l-7 3-6 2-2-2 1-5 8-4z" fill="#0D0076"/>
<path transform="translate(1101,1413)" d="m0 0h13l5 3 3 7 1 6 1 23 5 5v3h-8l-4-4v-2l-8 6-9 1-7-2-4-5-1-2v-12l6-5 13-4 8-1-1-8-2-2h-8l-7 3-3 2-5-1 1-5 8-5z" fill="#0D0076"/>
<path transform="translate(316,1413)" d="m0 0 4 1 1 5 10-6h10l5 3 2 5 9-7 2-1h10l6 4 3 7v36h-7l-1-36-4-4-9 1-5 5-1 3-1 31h-7l-1-35-2-4-8-1-6 3-3 4-1 33h-7v-46z" fill="#0D0076"/>
<path transform="translate(1257,1413)" d="m0 0h13l6 4 4 5 2 6v9l-1 1-7 1h-24l2 9 3 4 3 1h11l9-6 3 1-2 6-6 5-8 2-10-1-8-5-4-7-1-4v-13l3-9 5-6z" fill="#0D0076"/>
<path transform="translate(1697,1444)" d="m0 0h6l3 7 20 2 6 4 2 4-1 9-5 6-7 3-12 1-11-3-6-7v-7l6-9-1-3z" fill="#0D0076"/>
<path transform="translate(229,1398)" d="m0 0h10l9 3 7 7v5h-4l-8-6-6-2-10 1-6 4-4 5-2 6v17l4 9 6 5 3 1h10l8-4 6-8 4 2-1 6-4 6-6 4-11 2-12-2-8-6-6-9-2-7v-14l3-10 4-6 7-6z" fill="#0D0076"/>
<path transform="translate(1726,1408)" d="m0 0 6 1-1 4-3 3h-2l3 8v10l-3 5-5 4-8 2-10-1-3-3-4-8v-10l4-6 4-3 3-1h12l5 2-1-3z" fill="#0D0076"/>
<path transform="translate(1462,1395)" d="m0 0h5l1 6v11l1 7 5-4 5-2h10l5 3 3 4 2 7v33h-7l-1-33-2-5-4-2-9 1-7 6-1 32-1 1h-6v-64z" fill="#0D0076"/>
<path transform="translate(1740,1413)" d="m0 0h5l3 5 11 30 2 1 13-35 1-1h5l1 3-10 28-11 27-5 6-9 3-7-1-2-5 4-2h8l5-5 1-8-6-16-8-21z" fill="#0D0076"/>
<path transform="translate(463,1419)" d="m0 0 10 1 5 5 2 4v15l-3 6-5 4-3 1h-7l-6-4-3-5-1-4v-11l3-6 5-5z" fill="#FEFFFE"/>
<path transform="translate(1e3 1419)" d="m0 0 9 1 5 5 2 4v15l-3 6-5 4-8 1-7-3-4-6-1-4v-11l4-8 4-3z" fill="#FEFFFE"/>
<path transform="translate(559,1419)" d="m0 0 10 1 5 5 2 4v15l-3 6-5 4-9 1-6-3-4-6-1-5v-10l4-8z" fill="#FEFFFE"/>
<path transform="translate(1660,1419)" d="m0 0 9 1 5 5 2 4v15l-3 6-6 4h-11l-5-4-3-7v-12l4-8 4-3z" fill="#FEFFFE"/>
<path transform="translate(1583,1419)" d="m0 0 9 1 5 5 2 5v14l-3 6-6 4-7 1-7-3-4-6-1-5v-10l4-8 4-3z" fill="#FEFFFE"/>
<path transform="translate(746,1419)" d="m0 0 10 1 5 5 2 5v14l-4 7-7 4-9-1-5-4-3-8v-11l3-6 5-5z" fill="#FEFFFE"/>
<path transform="translate(884,1413)" d="m0 0 4 1 1 4 13-5h11l5 3 3 6 1 7v30l-1 1h-7v-20l-1-16-2-3-8-1-7 3-3 3-1 3-1 31h-7z" fill="#0D0076"/>
<path transform="translate(413,1419)" d="m0 0 9 1 5 6 1 2v17l-4 6-4 3-6 1-7-2-4-5-2-4v-14l3-5 6-5z" fill="#FEFFFE"/>
<path transform="translate(1514,1413)" d="m0 0 5 1 1 6 8-6 3-1h12l5 3 3 7 1 6v30l-1 1h-6l-1-1v-29l-2-8-4-2h-7l-5 3-3 3-1 3-1 31h-7l-1-1z" fill="#0D0076"/>
<path transform="translate(936,1413)" d="m0 0h4l2 6 8-5 3-1h12l6 5 2 5 1 7v30h-8v-29l-2-9-3-2h-7l-6 3-3 3-1 3-1 30-1 1h-6z" fill="#0D0076"/>
<path transform="translate(785,1413)" d="m0 0 4 2 1 3 11-5h12l6 5 2 5 1 21v15l-1 1h-6l-1-1v-28l-2-9-3-2h-7l-8 4-2 4-1 32h-7v-46z" fill="#0D0076"/>
<path transform="translate(622,1413)" d="m0 0 5 1 1 31 2 7 3 2 9-1 6-5 1-4 1-30 5-1 2 1 1 45-1 1h-5l-2-6-7 6-10 1-7-2-4-5-2-7v-29z" fill="#0D0076"/>
<path transform="translate(513,1412)" d="m0 0 10 2 6 5-1 4-5-1-6-2h-8l-4 3 1 6 8 3 12 4 5 6v10l-5 6-9 3h-7l-9-3-4-4v-6l5 1 7 4h10l4-3v-7l-8-3-12-4-5-5v-10l5-6 4-2z" fill="#0D0076"/>
<path transform="translate(1425,1413)" d="m0 0h13l6 3 4 4v6l-5-1-5-4-10-1-7 4-3 9 1 12 4 6 3 2 6 1 7-2 7-7 3 1-1 6-5 6-4 2-11 1-9-3-6-7-3-8v-12l3-9 5-6z" fill="#0D0076"/>
<path transform="translate(1192,1413)" d="m0 0h5l4 9 10 26 1 2h2l5-16 7-20 7-1 1 3-12 32-6 12h-7l-3-2-10-27-5-15z" fill="#0D0076"/>
<path transform="translate(1309,1399)" d="m0 0h46l1 4-3 2-17 1-1 54h-7v-55h-18l-2-1z" fill="#0D0076"/>
<path transform="translate(1037,1413)" d="m0 0h5l3 4 9 24 4 11 4-9 9-25 3-5h5l-1 9-13 34-3 4h-8l-3-5-11-30-3-8z" fill="#0D0076"/>
<path transform="translate(1140,1403)" d="m0 0h5l2 2v9h15v5h-15l1 32 1 2h13l1 5-2 2h-15l-5-5-1-4v-31h-7l-2-2 1-4 8-1z" fill="#0D0076"/>
<path transform="translate(678,1402)" d="m0 0 4 1 1 2v9l10-1 5 2v4h-15l1 32 1 2 14 1-1 5-1 1h-14l-6-5-1-3v-32h-7l-2-2 1-4 8-1v-10z" fill="#0D0076"/>
<path transform="translate(597,1395)" d="m0 0h5l1 1 1 58 8 1-1 5-4 1-8-2-3-5v-58z" fill="#0D0076"/>
<path transform="translate(1619,1396)" d="m0 0h7l1 54 1 3 7 3v4l-5 1-8-2-3-5-1-57z" fill="#0D0076"/>
<path transform="translate(859,1399)" d="m0 0h7l1 4v56l-1 1h-7z" fill="#0D0076"/>
<path transform="translate(1702,1459)" d="m0 0h16l7 1 2 2v6l-4 4-8 2-11-1-5-4v-6z" fill="#FEFFFE"/>
<path transform="translate(1173,1413)" d="m0 0h5l2 5v41l-1 1h-6z" fill="#0D0076"/>
<path transform="translate(709,1413)" d="m0 0h5l2 4v42l-1 1h-6z" fill="#0D0076"/>
<path transform="translate(1710,1419)" d="m0 0 8 1 4 4v10l-5 4h-10l-4-5v-9l3-4z" fill="#FEFFFE"/>
<path transform="translate(289,1436)" d="m0 0h4v8l-3 7-3 3-3 1h-8l-4-4-1-6 2-4 8-3z" fill="#FEFFFE"/>
<path transform="translate(1111,1436)" d="m0 0h5v8l-2 6-5 4-10 1-4-4v-8l3-3z" fill="#FEFFFE"/>
<path transform="translate(1260,1419)" d="m0 0 10 1 4 5 1 7-12 1-13-1 1-7 6-5z" fill="#FEFFFE"/>
<path transform="translate(1379,1419)" d="m0 0 9 1 5 5 1 7-9 1-17-1 2-6 5-5z" fill="#FEFFFE"/>
<path transform="translate(1173,1396)" d="m0 0h6l2 2-1 6-6 1-2-2v-6z" fill="#0D0076"/>
<path transform="translate(709,1396)" d="m0 0h6l2 2-1 6-6 1-2-2v-6z" fill="#0D0076"/>
</svg>
